# xmcd CD database file
#
# Track frame offsets:
#	150
#	16422
#	20762
#	36697
#	41192
#	62320
#	74905
#	86765
#	103525
#	116935
#	132150
#
# Disc length: 2019 seconds
#
# Revision: 9
# Processed by: cddbd v1.5.1PL2 Copyright (c) Steve Scherf et al.
# Submitted via: CDex 1.51
#
DISCID=a507e10b
DTITLE=The The - Hanky Panky
DYEAR=1994
DGENRE=Indie
TTITLE0=Honky Tonkin'
TTITLE1=Six More Miles
TTITLE2=My Heart Would Know
TTITLE3=If You'll Be a Baby to Me
TTITLE4=I'm a Long Gone Daddy
TTITLE5=Weary Blues from Waitin'
TTITLE6=I Saw the Light
TTITLE7=Your Cheatin' Heart
TTITLE8=I Can't Get You off of my Mind
TTITLE9=There's a Tear in my Beer
TTITLE10=I Can't Escape from You
EXTD=YEAR: 1994
EXTT0=
EXTT1=
EXTT2=
EXTT3=
EXTT4=
EXTT5=
EXTT6=
EXTT7=
EXTT8=
EXTT9=
EXTT10=
PLAYORDER=
